<svg xmlns="http://www.w3.org/2000/svg" version="1.1" xmlns:xlink="http://www.w3.org/1999/xlink" xmlns:svgjs="http://svgjs.dev/svgjs" width="2000" height="535" viewBox="0 0 2000 535"><g transform="matrix(1,0,0,1,-1.2121212121212466,-0.9932588706346337)"><svg viewBox="0 0 396 106" data-background-color="#ffffff" preserveAspectRatio="xMidYMid meet" height="535" width="2000" xmlns="http://www.w3.org/2000/svg" xmlns:xlink="http://www.w3.org/1999/xlink"><g id="tight-bounds" transform="matrix(1,0,0,1,0.2400000000000091,0.19679521549022638)"><svg viewBox="0 0 395.52 105.60640956901955" height="105.60640956901955" width="395.52"><g><svg viewBox="0 0 558.3338815607478 149.07877369631066" height="105.60640956901955" width="395.52"><g transform="matrix(1,0,0,1,0,20.603506350213706)"><svg viewBox="0 0 395.52 107.87176099588325" height="107.87176099588325" width="395.52"><g id="textblocktransform"><svg viewBox="0 0 395.52 107.87176099588325" height="107.87176099588325" width="395.52" id="textblock"><g><svg viewBox="0 0 395.52 58.18087338161071" height="58.18087338161071" width="395.52"><g transform="matrix(1,0,0,1,0,0)"><svg width="395.52" viewBox="1.56 -39.38 333.74 49.1" height="58.18087338161071" data-palette-color="#ed3b43"><path d="M24.95 0L1.56 0 1.56-8.42 5.47-8.42 5.47-30.44 1.56-30.44 1.56-38.87 22.53-38.87Q30.49-38.87 34.55-35.78 38.6-32.69 38.6-26.54L38.6-26.54Q38.6-20.58 34.57-17.52 30.54-14.45 22.78-14.45L22.78-14.45 17.87-14.45 17.87-8.42 24.95-8.42 24.95 0ZM21.12-30.69L21.12-30.69 17.87-30.69 17.87-21.9 20.87-21.9Q23.36-21.9 24.61-22.95 25.85-24 25.85-26.29L25.85-26.29Q25.85-28.61 24.65-29.65 23.44-30.69 21.12-30.69ZM62.38 0L41.5 0 41.5-7.32 45.04-7.32 45.04-18.53 41.5-18.53 41.5-25.2 56.52-26.64 56.52-21.63Q57.96-24.29 60.5-25.51 63.03-26.73 65.35-26.73L65.35-26.73 65.35-16.24Q63.16-16.99 61.33-16.99L61.33-16.99Q60.1-16.99 58.76-16.56 57.42-16.14 56.76-15.41L56.76-15.41 56.76-7.32 62.38-7.32 62.38 0ZM81.98 0.44L81.98 0.44Q77.39 0.44 74.06-1.2 70.72-2.83 68.93-5.86 67.13-8.89 67.13-13.06L67.13-13.06Q67.13-17.26 68.93-20.29 70.72-23.32 74.06-24.96 77.39-26.61 81.98-26.61L81.98-26.61Q86.57-26.61 89.9-24.96 93.23-23.32 95.03-20.29 96.82-17.26 96.82-13.06L96.82-13.06Q96.82-8.89 95.03-5.86 93.23-2.83 89.9-1.2 86.57 0.44 81.98 0.44ZM81.98-6.67L81.98-6.67Q85.27-6.67 85.27-13.09L85.27-13.09Q85.27-19.51 81.98-19.51L81.98-19.51Q78.68-19.51 78.68-13.09L78.68-13.09Q78.68-6.67 81.98-6.67ZM117.4 0L99.94 0 99.94-7.32 103.48-7.32 103.48-18.53 99.94-18.53 99.94-25.2 114.96-26.64 114.96-23.44Q116.47-24.98 118.72-25.81 120.96-26.64 123.5-26.64L123.5-26.64Q128.63-26.64 130.63-23.07L130.63-23.07Q132.51-24.78 134.92-25.71 137.32-26.64 139.74-26.64L139.74-26.64Q144.43-26.64 146.54-24.17 148.65-21.7 148.65-16.7L148.65-16.7 148.65-7.32 152.07-7.32 152.07 0 136.93 0 136.93-16.7Q136.93-18.07 136.33-18.69 135.73-19.31 134.83-19.31L134.83-19.31Q134.1-19.31 133.29-18.87 132.49-18.43 131.93-17.6L131.93-17.6 131.93-7.32 134.12-7.32 134.12 0 120.21 0 120.21-16.7Q120.21-18.07 119.61-18.69 119.01-19.31 118.11-19.31L118.11-19.31Q117.38-19.31 116.57-18.87 115.76-18.43 115.2-17.6L115.2-17.6 115.2-7.32 117.4-7.32 117.4 0ZM172.79 9.72L153.99 9.72 153.99 2.39 157.53 2.39 157.53-18.53 153.99-18.53 153.99-25.2 169.01-26.64 169.01-23.46Q170.52-24.9 172.52-25.77 174.53-26.64 176.6-26.64L176.6-26.64Q180.17-26.64 182.72-24.95 185.27-23.27 186.64-20.21 188-17.16 188-13.06L188-13.06Q188-8.98 186.66-5.94 185.32-2.91 182.89-1.25 180.46 0.42 177.21 0.42L177.21 0.42Q173.01 0.42 169.25-2.64L169.25-2.64 169.25 2.39 172.79 2.39 172.79 9.72ZM172.82-6.88L172.82-6.88Q174.55-6.88 175.5-8.52 176.45-10.16 176.45-13.09L176.45-13.09Q176.45-16.02 175.5-17.68 174.55-19.34 172.82-19.34L172.82-19.34Q171.91-19.34 170.91-19.06 169.91-18.77 169.25-18.29L169.25-18.29 169.25-8.01Q169.91-7.54 170.91-7.21 171.91-6.88 172.82-6.88ZM205.58 0.44L205.58 0.44Q199.79 0.44 196.64-2.21 193.49-4.86 193.49-9.89L193.49-9.89 193.49-18.85 189.47-18.85 189.47-25.51 193.49-25.9 193.49-31.76 205.21-34.33 205.21-26.17 211.12-26.17 211.12-18.85 205.21-18.85 205.21-10.13Q205.21-8.67 205.93-7.85 206.65-7.03 208.12-7.03L208.12-7.03Q208.97-7.03 209.57-7.19 210.17-7.35 210.71-7.52L210.71-7.52 211.36-7.23 211.36-0.24Q209.97 0.07 208.57 0.26 207.17 0.44 205.58 0.44ZM228.43 0.44L228.43 0.44Q223.84 0.44 220.51-1.2 217.17-2.83 215.38-5.86 213.58-8.89 213.58-13.06L213.58-13.06Q213.58-17.26 215.38-20.29 217.17-23.32 220.51-24.96 223.84-26.61 228.43-26.61L228.43-26.61Q233.02-26.61 236.35-24.96 239.68-23.32 241.48-20.29 243.27-17.26 243.27-13.06L243.27-13.06Q243.27-8.89 241.48-5.86 239.68-2.83 236.35-1.2 233.02 0.44 228.43 0.44ZM228.43-6.67L228.43-6.67Q231.72-6.67 231.72-13.09L231.72-13.09Q231.72-19.51 228.43-19.51L228.43-19.51Q225.13-19.51 225.13-13.09L225.13-13.09Q225.13-6.67 228.43-6.67ZM264.26 9.72L245.47 9.72 245.47 2.39 249.01 2.39 249.01-18.53 245.47-18.53 245.47-25.2 260.48-26.64 260.48-23.46Q261.99-24.9 264-25.77 266-26.64 268.07-26.64L268.07-26.64Q271.64-26.64 274.19-24.95 276.74-23.27 278.11-20.21 279.47-17.16 279.47-13.06L279.47-13.06Q279.47-8.98 278.13-5.94 276.79-2.91 274.36-1.25 271.93 0.42 268.68 0.42L268.68 0.42Q264.48 0.42 260.72-2.64L260.72-2.64 260.72 2.39 264.26 2.39 264.26 9.72ZM264.29-6.88L264.29-6.88Q266.02-6.88 266.97-8.52 267.93-10.16 267.93-13.09L267.93-13.09Q267.93-16.02 266.97-17.68 266.02-19.34 264.29-19.34L264.29-19.34Q263.39-19.34 262.38-19.06 261.38-18.77 260.72-18.29L260.72-18.29 260.72-8.01Q261.38-7.54 262.38-7.21 263.39-6.88 264.29-6.88ZM301.76 0L282.48 0 282.48-7.32 286.26-7.32 286.26-18.53 282.48-18.53 282.48-25.2 297.98-26.64 297.98-7.32 301.76-7.32 301.76 0ZM292.12-28.27L292.12-28.27Q288.92-28.27 287-29.81 285.09-31.35 285.09-33.89L285.09-33.89Q285.09-36.43 286.99-37.9 288.9-39.38 292.14-39.38L292.14-39.38Q295.46-39.38 297.31-37.94 299.15-36.5 299.15-33.89L299.15-33.89Q299.15-31.3 297.26-29.79 295.37-28.27 292.12-28.27ZM312.82 0.44L312.82 0.44Q310.3 0.44 308.34-0.57 306.37-1.59 305.26-3.37 304.15-5.15 304.15-7.47L304.15-7.47Q304.15-11.08 306.94-13.23 309.72-15.38 314.36-15.38L314.36-15.38Q315.97-15.38 317.43-15.19 318.9-14.99 320.41-14.53L320.41-14.53 320.41-15.06Q320.41-17.29 319.06-18.29 317.7-19.29 314.72-19.29L314.72-19.29Q312.58-19.29 310.38-18.73 308.18-18.16 306.37-17.16L306.37-17.16 305.71-17.46 305.71-24.58Q308.28-25.59 311.54-26.1 314.8-26.61 318.09-26.61L318.09-26.61Q325.39-26.61 328.76-24.17 332.13-21.73 332.13-16.33L332.13-16.33 332.13-7.32 335.3-7.32 335.3 0 321.97 0 320.78-3.83Q319.63-1.83 317.52-0.7 315.41 0.44 312.82 0.44ZM317.92-5.81L317.92-5.81Q318.58-5.81 319.3-6.04 320.02-6.27 320.41-6.67L320.41-6.67 320.41-10.74Q319.8-11.01 319.18-11.11 318.56-11.21 318.02-11.21L318.02-11.21Q316.77-11.21 315.93-10.47 315.09-9.74 315.09-8.52L315.09-8.52Q315.09-7.28 315.87-6.54 316.65-5.81 317.92-5.81Z" opacity="1" transform="matrix(1,0,0,1,0,0)" fill="#ed3b43" class="wordmark-text-0" data-fill-palette-color="primary" id="text-0"></path></svg></g></svg></g><g transform="matrix(1,0,0,1,182.22057351591658,71.91598124604783)"><svg viewBox="0 0 213.2994264840834 35.955779749835415" height="35.955779749835415" width="213.2994264840834"><g transform="matrix(1,0,0,1,0,0)"><svg width="213.2994264840834" viewBox="0.95 -37 223.33 37.65" height="35.955779749835415" data-palette-color="#71cdf6"><path d="M23-13.35L10.55-13.35 7.35-5.4Q6.6-3.55 6.6-2.35L6.6-2.35Q6.6-0.7 8.1 0L8.1 0 0.95 0Q1.45 0 2.4-1 3.35-2 4.6-4.95L4.6-4.95 17.65-36 30.6-4.8Q31.7-2.1 32.73-1.1 33.75-0.1 34.35 0L34.35 0 26.05 0Q27.3-0.6 27.3-1.85L27.3-1.85Q27.3-2.9 26.5-4.85L26.5-4.85 23-13.35ZM11.4-15.4L22.2-15.4 16.75-28.75 11.4-15.4ZM38.6 0Q38.6 0.15 39.2-0.23 39.8-0.6 40.3-1.63 40.8-2.65 40.8-4.65L40.8-4.65 40.8-29.75Q40.8-31.75 40.32-32.77 39.85-33.8 39.25-34.15 38.65-34.5 38.65-34.4L38.65-34.4 46.6-34.4Q46.6-34.5 46-34.15 45.4-33.8 44.9-32.77 44.4-31.75 44.4-29.75L44.4-29.75 44.4-4.65Q44.4-2.65 44.9-1.63 45.4-0.6 46-0.25 46.6 0.1 46.6 0L46.6 0 38.6 0ZM53.2-9.2L53.2-12.1 62-12.1 62-9.2 53.2-9.2ZM90.99-25.1Q90.99-22.2 89.62-19.93 88.24-17.65 85.69-16.35 83.14-15.05 79.69-15.05L79.69-15.05Q77.59-15.05 75.19-15.5L75.19-15.5 75.19-4.6Q75.19-2.65 75.69-1.63 76.19-0.6 76.79-0.25 77.39 0.1 77.39 0L77.39 0 69.44 0Q69.44 0.1 70.04-0.25 70.64-0.6 71.12-1.6 71.59-2.6 71.59-4.6L71.59-4.6 71.59-29.65Q71.59-31.65 71.12-32.7 70.64-33.75 70.04-34.13 69.44-34.5 69.44-34.4L69.44-34.4 79.24-34.4Q81.79-34.4 83.44-34.08 85.09-33.75 86.34-33.1L86.34-33.1Q88.59-31.95 89.79-29.78 90.99-27.6 90.99-25.1L90.99-25.1ZM87.14-24.45Q87.14-28 84.94-30.2 82.74-32.4 79.09-32.4L79.09-32.4 75.19-32.4 75.19-17.45Q77.34-17.05 79.69-17.05L79.69-17.05Q83.19-17.05 85.17-19.07 87.14-21.1 87.14-24.45L87.14-24.45ZM93.79-8.55Q93.79-11.15 95.07-13.48 96.34-15.8 98.59-17.2 100.84-18.6 103.59-18.6L103.59-18.6Q106.24-18.6 108.39-17.38 110.54-16.15 111.77-14.05 112.99-11.95 112.99-9.45L112.99-9.45Q112.99-6.85 111.72-4.53 110.44-2.2 108.19-0.8 105.94 0.6 103.19 0.6L103.19 0.6Q100.54 0.6 98.39-0.63 96.24-1.85 95.02-3.95 93.79-6.05 93.79-8.55L93.79-8.55ZM109.39-8Q109.39-10.1 108.59-12.15 107.79-14.2 106.34-15.5 104.89-16.8 102.99-16.8L102.99-16.8Q100.34-16.8 98.87-14.8 97.39-12.8 97.39-10L97.39-10Q97.39-7.9 98.19-5.85 98.99-3.8 100.44-2.5 101.89-1.2 103.79-1.2L103.79-1.2Q106.44-1.2 107.92-3.2 109.39-5.2 109.39-8L109.39-8ZM137.54-5.3L140.89-14.05Q141.24-14.95 141.24-15.9L141.24-15.9Q141.24-16.8 140.86-17.4 140.49-18 139.64-18.15L139.64-18.15 146.34-18.15Q145.79-18.05 144.91-17.3 144.04-16.55 143.19-14.5L143.19-14.5 136.79 0.65 130.64-12.3 124.74 0.6 118.09-14.75Q117.24-16.65 116.46-17.38 115.69-18.1 115.24-18.2L115.24-18.2 122.54-18.2Q121.24-17.95 121.24-16.5L121.24-16.5Q121.24-15.7 121.69-14.6L121.69-14.6 125.49-5.35 131.44-18.6 137.54-5.3ZM157.24 0.6Q154.54 0.6 152.59-0.73 150.64-2.05 149.61-4.17 148.59-6.3 148.59-8.7L148.59-8.7Q148.59-11.8 149.81-14.05 151.04-16.3 152.99-17.45 154.94-18.6 157.04-18.6L157.04-18.6Q160.04-18.6 162.21-16.43 164.39-14.25 164.59-10.4L164.59-10.4 151.59-10.4Q151.59-8 152.49-6.18 153.39-4.35 154.91-3.38 156.44-2.4 158.24-2.4L158.24-2.4Q162.94-2.4 164.59-5.4L164.59-5.4Q164.14-2.7 162.14-1.05 160.14 0.6 157.24 0.6L157.24 0.6ZM156.69-16.95Q154.74-16.95 153.34-15.58 151.94-14.2 151.64-12L151.64-12 160.74-12Q160.74-14.3 159.51-15.63 158.29-16.95 156.69-16.95L156.69-16.95ZM173.78-14.05Q174.53-15.65 176.26-17.13 177.98-18.6 179.73-18.6L179.73-18.6Q180.83-18.6 181.38-18.3L181.38-18.3 181.38-14.2Q180.28-15.55 178.28-15.55L178.28-15.55Q176.18-15.55 174.98-13.73 173.78-11.9 173.78-9.05L173.78-9.05 173.78-5Q173.78-2.2 174.43-1.15 175.08-0.1 175.68 0L175.68 0 168.63 0Q169.23-0.1 169.91-1.13 170.58-2.15 170.58-5L170.58-5 170.58-12.55Q170.58-14.65 169.91-15.43 169.23-16.2 168.38-16.2L168.38-16.2 173.78-18.6 173.78-14.05ZM193.23 0.6Q190.53 0.6 188.58-0.73 186.63-2.05 185.61-4.17 184.58-6.3 184.58-8.7L184.58-8.7Q184.58-11.8 185.81-14.05 187.03-16.3 188.98-17.45 190.93-18.6 193.03-18.6L193.03-18.6Q196.03-18.6 198.21-16.43 200.38-14.25 200.58-10.4L200.58-10.4 187.58-10.4Q187.58-8 188.48-6.18 189.38-4.35 190.91-3.38 192.43-2.4 194.23-2.4L194.23-2.4Q198.93-2.4 200.58-5.4L200.58-5.4Q200.13-2.7 198.13-1.05 196.13 0.6 193.23 0.6L193.23 0.6ZM192.68-16.95Q190.73-16.95 189.33-15.58 187.93-14.2 187.63-12L187.63-12 196.73-12Q196.73-14.3 195.51-15.63 194.28-16.95 192.68-16.95L192.68-16.95ZM218.58-17.25L218.58-30.75Q218.58-32.85 217.9-33.63 217.23-34.4 216.38-34.4L216.38-34.4 216.08-34.4 221.78-37 221.78-5.65Q221.78-3.55 222.45-2.78 223.13-2 223.98-2L223.98-2 224.28-2 218.58 0.6 218.58-2.65Q217.98-1.65 216.4-0.53 214.83 0.6 212.28 0.6L212.28 0.6Q210.08 0.6 208.33-0.5 206.58-1.6 205.58-3.55 204.58-5.5 204.58-7.9L204.58-7.9Q204.58-10.95 205.83-13.3 207.08-15.65 209.08-17.05L209.08-17.05Q211.33-18.6 213.98-18.6L213.98-18.6Q215.73-18.6 216.88-18.13 218.03-17.65 218.58-17.25L218.58-17.25ZM208.18-9.4Q208.18-6.25 209.65-3.93 211.13-1.6 213.93-1.6L213.93-1.6Q214.98-1.6 216.08-2.18 217.18-2.75 217.88-3.75 218.58-4.75 218.58-6L218.58-6 218.58-11.9Q218.58-13.5 218.2-14.5 217.83-15.5 217.03-16L217.03-16Q215.78-16.8 213.98-16.8L213.98-16.8Q211.48-16.8 209.83-14.78 208.18-12.75 208.18-9.4L208.18-9.4Z" opacity="1" transform="matrix(1,0,0,1,0,0)" fill="#71cdf6" class="slogan-text-1" data-fill-palette-color="secondary" id="text-1"></path></svg></g></svg></g></svg></g></svg></g><g transform="matrix(1,0,0,1,409.2551078644371,0)"><svg viewBox="0 0 149.07877369631066 149.07877369631066" height="149.07877369631066" width="149.07877369631066"><g data-palette-color="#fee717"><rect width="40.74819814365825" height="149.07877369631066" fill="#fee717" stroke="transparent" data-fill-palette-color="accent" x="0" fill-opacity="1"></rect><rect width="40.74819814365825" height="149.07877369631066" fill="#fee717" stroke="transparent" data-fill-palette-color="accent" x="49.69292456543689" fill-opacity="0.75"></rect><rect width="40.74819814365825" height="149.07877369631066" fill="#fee717" stroke="transparent" data-fill-palette-color="accent" x="99.38584913087378" fill-opacity="0.5"></rect></g></svg></g></svg></g><defs></defs></svg><rect width="395.52" height="105.60640956901955" fill="none" stroke="none" visibility="hidden"></rect></g></svg></g></svg>